<svg xmlns="http://www.w3.org/2000/svg" viewBox="0 0 32 32" fill="none">
  <rect width="32" height="32" rx="8" fill="#111827"/>
  <path d="M8 7h10a3 3 0 0 1 3 3v13a3 3 0 0 1-3 3H8a1 1 0 0 1-1-1V8a1 1 0 0 1 1-1z" fill="#ffffff"/>
  <path d="M21 7h1a2 2 0 0 1 2 2v14a2 2 0 0 1-2 2h-1a3 3 0 0 0 3-3V10a3 3 0 0 0-3-3z" fill="#9ca3af"/>
  <line x1="10" y1="12" x2="18" y2="12" stroke="#111827" stroke-width="1.5" stroke-linecap="round"/>
  <line x1="10" y1="15.5" x2="18" y2="15.5" stroke="#111827" stroke-width="1.5" stroke-linecap="round"/>
  <line x1="10" y1="19" x2="15" y2="19" stroke="#111827" stroke-width="1.5" stroke-linecap="round"/>
</svg>
